# xmcd
# 
# Track frame offsets:
#     150
#     33381
#     57389
#     79807
#     96024
#     115767
#     136154
#     156614
#     195299
#     216059
#     232265
#     253851
# 
# Disc length: 3664
# 
# Revision: 2
# Processed by: cddbd v1.5.2PL0 Copyright (c) Steve Scherf et al.
# Submitted via: BonkEnc v1.0.15
# 
DISCID=a60e4e0c
DTITLE=Wolfgang Haffner - Shapes
DYEAR=2006
DGENRE=Jazz
TTITLE0=Faithless 
TTITLE1=Shapes
TTITLE2=Crusin
TTITLE3=New Life
TTITLE4=Disire
TTITLE5=Blue bar
TTITLE6=Ning
TTITLE7=Space calzone
TTITLE8=Some other time
TTITLE9=24 hours
TTITLE10=Tomorrow never knows
TTITLE11=Silent way
EXTD=YEAR: 2006
EXTT0=
EXTT1=
EXTT2=
EXTT3=
EXTT4=
EXTT5=
EXTT6=
EXTT7=
EXTT8=
EXTT9=
EXTT10=
EXTT11=
PLAYORDER=
